<svg width="515" height="262" viewBox="0 0 515 262" fill="none" xmlns="http://www.w3.org/2000/svg">
<path d="M513.428 128.545L385.738 0.87529C384.895 0.0354502 383.637 -0.218511 382.535 0.230759C381.434 0.676069 380.711 1.73856 380.692 2.92606V100.028L3.94159 100.028V100.032C2.31269 100.032 0.988464 101.356 0.988464 102.985V158.278C0.988464 159.911 2.31269 161.235 3.94159 161.235L380.692 161.235L380.692 258.337C380.684 259.536 381.403 260.622 382.508 261.087C383.613 261.548 384.887 261.298 385.738 260.45L513.428 132.75C513.995 132.192 514.315 131.434 514.315 130.637C514.315 129.844 513.995 129.082 513.428 128.528V128.545Z" fill="#F4F4F4"/>
</svg>
