<svg width="480" height="92" viewBox="0 0 480 92" fill="none" xmlns="http://www.w3.org/2000/svg">
<path fill-rule="evenodd" clip-rule="evenodd" d="M248.415 1.7446C251.069 3.3892 252.938 2.70524 254.002 6.31635C255.022 9.92746 255.317 11.96 253.921 16.9099C252.525 21.8598 253.394 25.3604 251.585 36.5029C250.49 42.9656 250.572 44.941 250.438 46.7936L250.423 46.985L250.406 47.1766C250.291 48.3929 250.044 49.6858 249.264 52.2827C247.212 59.1165 246.895 62.6776 245.433 65.0387C243.983 67.3998 243.213 69.1476 240.359 72.0533C237.549 74.959 236.774 75.9487 232.909 78.593C229.107 81.2373 226.48 83.0321 221.519 84.9217C216.624 86.8112 215.23 87.6372 211.133 88.5402C207.063 89.4432 203.926 90.8759 200.73 89.708C197.503 88.5402 196.552 88.1402 194.039 84.9217C191.453 81.7032 190.662 79.6805 189.461 78.593C188.249 77.5054 188.354 76.7454 186.969 76.7454C186.666 76.7454 186.554 76.7095 186.517 76.6807L186.512 76.6764L186.506 76.6905C186.437 76.8209 185.996 77.2776 183.762 78.593C181.821 79.7464 181.262 80.2234 180.634 80.6822L180.528 80.7586C179.765 81.3066 178.79 81.8808 175.192 83.6031C170.926 85.6748 169.815 86.1165 168.773 86.3701L168.655 86.3981C168.106 86.5256 167.543 86.6159 166.521 86.8815C163.505 87.6686 162.262 88.5402 160.029 88.5402C159.135 88.5402 158.735 88.6571 158.33 88.7507L158.219 88.7755C157.641 88.8997 156.963 88.9522 154.786 88.5402C152.885 88.1816 152.346 88.0205 151.893 87.8294L151.789 87.7846C151.358 87.595 150.915 87.3614 149.315 86.8815C145.904 85.8639 145.96 86.7624 143.855 83.6031C141.703 80.4439 141.6 80.3275 140.411 76.7454C139.198 73.1632 138.419 73.1632 139.825 69.5489C141.276 65.9345 140.4 65.9345 142.369 62.4908C142.911 61.561 143.001 61.1947 143.163 60.8466L143.201 60.7693C143.665 59.8531 144.901 58.7836 157.106 47.6455C167.229 39.0173 170.917 35.7155 174.7 32.4915L175.118 32.1399C178.145 29.6183 181.391 27.0277 188.423 21.8598C205.614 9.84151 201.448 8.97163 213.632 5.30982C226.072 1.64801 226.017 0.219348 233.077 0.219348C233.642 0.219348 234.197 0.218584 234.743 0.21802L236.347 0.217896C241.853 0.226312 246.162 0.363132 248.415 1.7446ZM208.34 39.0463C207.764 39.2152 206.035 39.5518 204.699 40.537C203.371 41.5222 202.237 41.5348 201.231 43.1447C200.233 44.7545 199.195 47.6412 200.643 47.6412H206.495C207.242 47.555 208.09 47.1236 209.039 46.347C210.472 45.1822 212.055 44.0659 212.209 43.1447C212.363 42.2235 214.03 40.9202 212.724 40.0677C211.41 39.2152 208.917 38.8774 208.34 39.0463Z" fill="#E2FFEE"/>
<path fill-rule="evenodd" clip-rule="evenodd" d="M263.466 62.3186C263.353 61.2655 264.161 57.8067 265.889 51.9421C268.482 43.1452 268.195 42.6666 270.614 33.8603C273.033 25.0539 273.303 20.3448 276.778 16.2511C280.254 12.1574 281.758 9.16955 288.766 6.01158C295.774 2.85361 298.853 1.06475 304.093 1.06475C309.332 1.06475 313.247 0.426946 316.143 2.74957C319.039 5.07219 321.426 5.44736 323.784 9.38754C326.143 13.3277 326.833 18.3559 328.13 16.2511C329.427 14.1463 328.065 14.3887 332.752 9.38754C337.439 4.38639 340.339 -0.838573 346.634 0.113087C352.929 1.06475 356.232 0.983466 357.994 2.74957C359.757 4.51567 362.601 5.16452 362.149 9.38754C361.696 13.6106 362.623 12.3006 360.452 21.0688C358.28 29.837 357.712 29.8879 354.351 45.1477C350.989 60.4076 351.173 64.8372 348.077 69.9209C344.982 75.0047 344.597 77.2463 342.13 79.3007C339.662 81.3552 338.508 82.0011 333.796 84.0253C329.084 86.0494 323.662 89.4283 320.859 89.4283C318.057 89.4283 317.734 90.453 313.497 89.4283C309.259 88.4037 305.856 88.4984 304.063 86.8589C302.27 85.2195 300.616 85.1752 298.914 81.6692C297.213 78.1631 297.273 76.0628 295.613 75.2467C293.952 74.4307 293.413 73.0088 292.352 75.2467C291.292 77.4847 291.242 79.0851 288.672 82.4194C286.101 85.7538 281.475 88.6528 277.964 88.6528C274.452 88.6528 270.572 90.4466 266.998 88.6528C263.425 86.8589 260.714 84.9599 260.109 80.4499C259.504 75.9398 259.341 74.9809 260.582 69.9209C261.409 66.5476 262.37 64.0135 263.466 62.3186Z" fill="#E2FFEE"/>
<path fill-rule="evenodd" clip-rule="evenodd" d="M376.819 53.0621C373.047 61.859 373.003 63.4386 373.003 63.4386C373.003 63.4386 371.019 65.981 369.099 71.0409C367.214 76.0107 367.214 77.0244 367.215 81.3322L367.215 81.5698C367.215 86.0798 369.671 87.9789 373.003 89.7728C375.24 90.9766 377.832 90.5647 380.356 90.1635C381.593 89.9668 382.814 89.7728 383.969 89.7728C387.48 89.7728 392.495 86.8737 395.513 83.5394C397.649 81.1791 398.406 79.6877 399.148 78.2239C399.454 77.6198 399.758 77.0205 400.156 76.3667C401.166 74.7061 401.618 75.0606 402.418 75.6874C402.696 75.9054 403.016 76.1562 403.416 76.3667C404.396 76.8823 404.62 77.9104 404.963 79.4818C405.163 80.3977 405.403 81.4981 405.856 82.7892C406.307 84.074 406.815 84.8939 407.354 85.4978C407.46 85.2627 407.668 85.0349 407.993 84.8118C408.733 84.3038 410.286 83.6793 413.557 83.0257C415.934 82.551 418.013 82.4096 420 82.2744L420 82.2743C420.769 82.222 421.525 82.1706 422.278 82.1012C424.99 81.8514 427.776 81.3664 431.346 79.7773C434.207 78.504 435.834 77.2796 437.219 76.2372C437.564 75.9775 437.894 75.7291 438.225 75.4941C439.058 74.9015 439.895 74.3942 440.962 74.0401C442.027 73.6867 443.293 73.4945 444.982 73.4945H445.02H445.059H445.097H445.136H445.174H445.212H445.251H445.289H445.327H445.365H445.403H445.441H445.478H445.516H445.554H445.591H445.629H445.666H445.703H445.741H445.778H445.815H445.852H445.889H445.926H445.963H445.999H446.036H446.073H446.109H446.146H446.182H446.218H446.254H446.291H446.327H446.363H446.399H446.434H446.47H446.506H446.542H446.577H446.613H446.648H446.683H446.719H446.754H446.789H446.824H446.859H446.894H446.929H446.963H446.998H447.033H447.067H447.102H447.136H447.17H447.205H447.239H447.273H447.307H447.341H447.375H447.409H447.442H447.476H447.51H447.543H447.576H447.61H447.643H447.676H447.709H447.742H447.775H447.808H447.841H447.874H447.907H447.939H447.972H448.004H448.037H448.069H448.101H448.133H448.165H448.198H448.229H448.261H448.293H448.325H448.357H448.388H448.42H448.451H448.482H448.514H448.545H448.576H448.607H448.638H448.669H448.7H448.731H448.761H448.792H448.822H448.853H448.883H448.914H448.944H448.974H449.004H449.034H449.064H449.094H449.124H449.153H449.183H449.213H449.242H449.272H449.301H449.33H449.359H449.389H449.418H449.447H449.475H449.504H449.533H449.562H449.59H449.619H449.647H449.676H449.704H449.732H449.76H449.788H449.817H449.844H449.872H449.9H449.928H449.955H449.983H450.01H450.038H450.065H450.093H450.12H450.147H450.174H450.201H450.228H450.255H450.281H450.308H450.335H450.361H450.388H450.414H450.44H450.466H450.493H450.519H450.545H450.571H450.596H450.622H450.648H450.673H450.699H450.724H450.75H450.775H450.8H450.826H450.851H450.876H450.901H450.926H450.95H450.975H451H451.024H451.049H451.073H451.098H451.122H451.146H451.17H451.194H451.218H451.242H451.266H451.29H451.313H451.337H451.36H451.384H451.407H451.431H451.454H451.477H451.5H451.523H451.546H451.569H451.592H451.614H451.637H451.659H451.682H451.704H451.727H451.749H451.771H451.793H451.815H451.837H451.859H451.881H451.902H451.924H451.946H451.967H451.989H452.01H452.031H452.052H452.074H452.095H452.116H452.136H452.157H452.178H452.199H452.219H452.24H452.26H452.281H452.301H452.321H452.341H452.361H452.381H452.401H452.421H452.441H452.46H452.48H452.5H452.519H452.538H452.558H452.577H452.596H452.615H452.634H452.653H452.672H452.691H452.709H452.728H452.747H452.765H452.783H452.802H452.82H452.838H452.856H452.874H452.892H452.91H452.928H452.946H452.963H452.981H452.998H453.016H453.033H453.05H453.067H453.085H453.102H453.119H453.135H453.152H453.169H453.186H453.202H453.219H453.235H453.251H453.268H453.284H453.3H453.316H453.332H453.348H453.364H453.38H453.395H453.411H453.426H453.442H453.457H453.472H453.488H453.503H453.518H453.533H453.548H453.562H453.577H453.592H453.607H453.621H453.635H453.65H453.664H453.678H453.693H453.707H453.721H453.734H453.748H453.762H453.776H453.789H453.803H453.816H453.83H453.843H453.856H453.869H453.883H453.896H453.908H453.921H453.934H453.947H453.959H453.972H453.984H453.997H454.009H454.021H454.033H454.046H454.058H454.069H454.081H454.093H454.105H454.116H454.128H454.139H454.151H454.162H454.173H454.185H454.196H454.207H454.218H454.228H454.239H454.25H454.261H454.271H454.282H454.292H454.302H454.313H454.323H454.333H454.343H454.353H454.363H454.372H454.382H454.392H454.401H454.411H454.42H454.429H454.439H454.448H454.457H454.466H454.475H454.484H454.493H454.501H454.51H454.518H454.527H454.535H454.544H454.552H454.56H454.568H454.576H454.584H454.592H454.6H454.607H454.615H454.623H454.63H454.638H454.645H454.652H454.659H454.666H454.673H454.68H454.687H454.694H454.701H454.707H454.714H454.72H454.727H454.733H454.739H454.745H454.752H454.758H454.763H454.769H454.775H454.781H454.786H454.792H454.797H454.803H454.808H454.813H454.819H454.824H454.829H454.834H454.838H454.843H454.847C455.351 72.7563 455.925 71.9434 456.595 71.0409C459.154 67.5983 460.167 64.4556 462.235 58.0466C463.22 54.9913 464.445 51.1939 466.191 46.2677C469.632 36.5586 471.117 33.0063 472.604 29.4483C473.454 27.4142 474.304 25.3782 475.522 22.1888C477.845 16.1037 478.025 14.8726 478.258 13.2773C478.361 12.574 478.474 11.7998 478.786 10.5075C479.559 7.3057 478.16 6.15846 476.774 5.02112C476.332 4.65837 475.891 4.29663 475.522 3.86956C474.368 2.53332 472.19 2.25461 468.527 1.78592C467.348 1.63515 466.016 1.46471 464.515 1.23308C459.488 0.457399 456.167 3.78523 452.209 7.75066C451.311 8.65029 450.38 9.58274 449.389 10.5075C445.658 13.9899 445.202 14.9299 444.735 15.8903C444.532 16.3092 444.327 16.7319 443.847 17.3711C442.867 18.6774 442.489 17.2364 441.906 15.0131C441.549 13.654 441.116 12.0024 440.422 10.5075C439.164 7.79864 437.666 6.7748 436.013 5.64468C435.262 5.131 434.479 4.59537 433.671 3.86956C431.566 1.97804 428.522 2.04997 424.635 2.14183C423.749 2.16277 422.819 2.18474 421.846 2.18474C417.315 2.18474 414.221 3.52261 408.66 5.92684C407.791 6.3027 406.861 6.70463 405.856 7.13158C399.671 9.75965 397.315 12.2699 394.378 15.3978C393.786 16.0284 393.17 16.6842 392.495 17.3711C389.507 20.4107 388.24 23.7895 386.312 28.933C385.644 30.7167 384.896 32.7127 383.969 34.9803C382.364 38.9066 381.518 41.1774 380.74 43.2682C379.773 45.8669 378.909 48.1872 376.819 53.0621ZM454.173 74.4945H444.982C443.369 74.4945 442.214 74.6781 441.277 74.9892C440.342 75.2997 439.596 75.7459 438.804 76.309C438.494 76.5295 438.178 76.768 437.841 77.0212C436.451 78.0684 434.726 79.3674 431.752 80.6909C428.056 82.336 425.158 82.8402 422.37 83.097C421.573 83.1704 420.792 83.2235 420.009 83.2767H420.009C418.044 83.4104 416.062 83.5451 413.753 84.0064C410.5 84.6563 409.12 85.2509 408.559 85.6362C408.451 85.7103 408.382 85.771 408.337 85.8163L408.407 85.8926C408.558 86.0584 408.767 86.2848 409.001 86.5275C409.482 87.0262 410.024 87.5489 410.376 87.7854C411.322 88.4192 412.179 88.8243 412.797 89.0701C413.105 89.1929 413.353 89.2758 413.521 89.3273C413.605 89.3531 413.67 89.371 413.712 89.3822C413.733 89.3878 413.748 89.3917 413.757 89.3941L413.767 89.3965L413.768 89.3967C413.768 89.3967 413.768 89.3967 413.753 89.4634C413.772 89.4674 413.792 89.4715 413.812 89.4755L413.835 89.4171L413.835 89.4174L413.839 89.4188L413.856 89.425C413.87 89.4306 413.893 89.439 413.923 89.45C413.982 89.4718 414.071 89.5038 414.185 89.5433C414.195 89.5467 414.205 89.5502 414.215 89.5537C414.659 89.637 415.126 89.7162 415.614 89.7988C416.774 89.9952 418.049 90.2112 419.398 90.5483C419.487 90.5705 419.574 90.5918 419.659 90.6121C420.051 90.6179 420.438 90.6106 420.81 90.5972C421.15 90.585 421.489 90.567 421.808 90.55C422.263 90.5258 422.679 90.5038 423 90.5038C423.393 90.5038 423.825 90.5607 424.266 90.6245C424.342 90.6355 424.418 90.6468 424.496 90.6581L424.497 90.6583C424.621 90.6766 424.748 90.6952 424.876 90.7134C425.411 90.6239 426 90.5483 426.76 90.5483C428.058 90.5483 430.013 89.8244 432.234 88.8459L432.256 88.8319C433.3 88.1576 434.45 87.4154 435.675 86.8965L436.076 86.7268C441.019 84.6332 444.03 83.3582 448.864 80.8101C449.033 80.6859 449.208 80.5564 449.389 80.4207C451.144 79.1063 452.057 77.7154 453.476 75.5525C453.695 75.2191 453.925 74.8672 454.173 74.4945Z" fill="#E2FFEE"/>
<path fill-rule="evenodd" clip-rule="evenodd" d="M7.40527 64.9397C12.4725 58.7076 18.9127 52.6787 28.6246 43.4366C38.3364 34.1946 35.2162 36.1091 46.6192 25.7926C58.0221 15.4761 56.1385 14.7735 62.2382 10.6151C68.3379 6.45661 70.7774 4.56168 77.7103 3.21102C84.6431 1.86036 91.0965 1.72021 93.4004 4.00025C95.7043 6.28029 99.9137 7.48853 98.113 11.8217C96.9124 14.7105 95.9105 17.9649 95.1072 21.585C95.6854 22.3985 97.3411 21.1817 100.075 17.9346C104.175 13.064 108.112 7.63263 113.239 5.81644C118.366 4.00025 121.859 1.58398 126.429 1.58398C131 1.58398 138.308 2.65211 139.617 6.63359C140.927 10.6151 140.876 12.3804 140.07 19.0865C139.264 25.7926 138.106 25.2496 137.566 39.9276C137.026 54.6057 138.971 57.2915 137.123 63.2306C135.275 69.1697 133.736 71.0356 129.762 75.9256C125.787 80.8156 118.578 85.4456 114.105 87.4327C109.632 89.4198 107.078 90.7948 103.028 90.7948C98.9781 90.7948 96.3208 90.759 93.1929 88.339C90.065 85.919 87.4918 84.9603 87.8206 82.2241C88.1494 79.4879 90.0265 79.1165 90.4099 75.9256C90.7934 72.7347 90.8674 70.5067 89.0258 72.1944C87.1841 73.8821 85.9456 76.8001 82.9836 79.095C80.0215 81.3899 75.916 85.5053 71.1541 87.4327C66.3923 89.3601 64.7438 90.7948 61.8436 90.7948C58.9435 90.7948 50.0968 92.6414 47.3566 87.4327C44.6164 82.2241 43.1013 83.0038 44.3999 78.1111C45.6985 73.2185 46.4741 70.1493 45.2337 71.1719C43.9933 72.1944 43.7796 73.7883 40.4293 77.3044C37.079 80.8206 36.8616 83.2607 30.4721 86.1965C24.0827 89.1324 20.4995 90.7948 17.4555 90.7948C14.4116 90.7948 8.3738 92.8163 4.59351 88.339C0.813221 83.8617 -0.357723 79.6568 0.0906335 75.9256C0.53899 72.1944 2.33809 71.1719 7.40527 64.9397Z" fill="#E2FFEE"/>
</svg>
